<svg width="807" height="512" viewBox="0 0 807 512" fill="none" xmlns="http://www.w3.org/2000/svg">
<path d="M403.233 512C625.932 512 806.465 397.385 806.465 256C806.465 114.615 625.932 0 403.233 0C180.533 0 0 114.615 0 256C0 397.385 180.533 512 403.233 512Z" fill="#FDC939"/>
<path d="M437.888 82.8423C444.69 82.7288 451.452 81.7839 458.024 80.0284C464.56 78.3199 470.892 75.9105 476.911 72.8421C482.92 69.748 488.556 65.9762 493.707 61.6003C498.917 57.2437 503.57 52.2618 507.561 46.7671C507.486 48.4732 507.201 50.1635 506.71 51.7992C506.224 53.5316 505.635 55.2334 504.946 56.8954C501.704 64.6037 497.295 71.7676 491.875 78.1357C486.178 84.9254 479.683 91.0034 472.531 96.2382C465.503 101.405 457.838 105.644 449.726 108.85C442.366 111.906 434.49 113.525 426.522 113.62C421.712 113.687 416.937 112.799 412.473 111.007C410.774 110.287 409.01 109.634 407.245 109.047C405.446 108.49 403.574 108.203 401.69 108.197C399.412 108.216 397.148 108.546 394.959 109.177C392.551 109.789 390.225 110.689 388.033 111.858C385.817 113.03 383.717 114.408 381.761 115.974C379.953 117.457 378.347 119.169 376.983 121.068C376.64 121.75 376.247 122.405 375.807 123.028C375.661 123.324 375.439 123.576 375.164 123.759C374.888 123.941 374.57 124.048 374.24 124.067C375.169 118.893 376.934 113.905 379.466 109.298C382.183 104.096 385.495 99.2265 389.336 94.7888C393.008 90.4453 397.275 86.642 402.01 83.4917C405.942 80.6583 410.63 79.0651 415.474 78.9167C417.384 78.8328 419.293 79.1216 421.093 79.7669C422.466 80.2864 424.165 80.8786 426.321 81.5331C428.02 81.8604 429.848 82.2501 431.744 82.5115C433.772 82.8595 435.833 82.9693 437.886 82.8388L437.888 82.8423Z" fill="#4383C4"/>
<path d="M326.346 279.081C328.652 279.937 330.9 280.941 333.077 282.087C335.09 283.128 336.976 284.401 338.696 285.878C340.217 287.279 341.536 288.885 342.616 290.648C343.595 292.428 344.091 294.434 344.053 296.465C344.018 298.732 343.483 300.962 342.486 302.998C341.417 305.271 340.102 307.419 338.566 309.405C337.062 311.448 335.378 313.351 333.534 315.092C332.009 316.614 330.346 317.992 328.567 319.208C327.447 317.831 326.2 316.562 324.841 315.42C323.126 313.889 321.314 312.469 319.418 311.17C317.368 309.786 315.227 308.542 313.01 307.445C310.804 306.376 308.507 305.501 306.148 304.832C310.266 299.464 313.861 294.898 316.801 291.107C319.805 287.318 323.009 283.332 326.342 279.083L326.346 279.081Z" fill="#4383C4"/>
<path d="M513.721 104.073C516.038 104.888 518.288 105.882 520.452 107.044C522.455 108.07 524.321 109.343 526.007 110.835C527.572 112.194 528.897 113.807 529.927 115.605C530.957 117.368 531.477 119.381 531.43 121.422C531.39 123.688 530.855 125.918 529.863 127.956C528.794 130.237 527.48 132.395 525.943 134.392C524.42 136.409 522.737 138.3 520.911 140.046C519.385 141.579 517.723 142.97 515.944 144.202C514.85 142.801 513.6 141.529 512.218 140.411C510.511 138.861 508.699 137.432 506.794 136.132C504.747 134.71 502.583 133.463 500.325 132.406C498.134 131.351 495.861 130.477 493.528 129.793C497.646 124.435 501.175 119.891 504.18 116.07C507.186 112.279 510.325 108.293 513.723 104.078L513.721 104.073Z" fill="#4383C4"/>
<path d="M545.818 323.618C545.964 322.221 546.483 320.889 547.321 319.762C548.197 318.544 549.205 317.426 550.327 316.43C551.439 315.417 552.615 314.402 553.922 313.424C555.229 312.508 556.405 311.657 557.385 310.941C559.868 309.306 563.004 307.282 566.736 304.928C570.468 302.575 574.182 300.028 577.846 297.25C581.342 294.561 584.619 291.6 587.649 288.395C590.2 285.902 592.067 282.796 593.073 279.375C591.171 280.152 589.2 280.743 587.185 281.141C585.04 281.614 582.848 281.846 580.651 281.833C578.507 281.811 576.375 281.504 574.312 280.919C572.322 280.317 570.492 279.279 568.954 277.88C566.672 275.97 564.936 273.49 563.922 270.692C563.365 269.407 563.111 268.01 563.179 266.611C563.247 265.212 563.635 263.847 564.313 262.621C566.144 259.191 567.647 256.61 568.693 254.655C569.732 252.728 570.653 250.896 571.503 249.197C572.288 247.563 573.202 245.734 574.116 243.84C575.032 241.912 576.274 239.337 577.777 236.063C579.081 233.76 581.005 231.869 583.33 230.605C585.548 229.328 588.102 228.758 590.652 228.97C593.653 229.129 596.48 230.426 598.558 232.596C600.686 234.89 602.311 237.603 603.329 240.562C604.45 243.691 605.175 246.949 605.487 250.259C605.79 253.156 605.877 256.072 605.748 258.983C605.288 263.372 604.546 267.727 603.526 272.02C602.403 276.827 600.962 281.554 599.213 286.169C597.535 290.754 595.435 295.173 592.941 299.37C590.881 303.024 588.206 306.296 585.034 309.043C583.843 310.079 582.437 310.838 580.916 311.264C579.772 311.62 578.585 311.818 577.387 311.853C574.416 312.022 571.476 312.549 568.63 313.422C565.551 314.363 562.537 315.509 559.61 316.852C556.8 318.127 554.123 319.401 551.645 320.612C549.096 321.853 547.201 322.899 545.828 323.616L545.818 323.618Z" fill="#4383C4"/>
<path d="M647.716 287.792C647.715 285.242 647.318 282.706 646.54 280.277C645.603 277.592 644.234 275.077 642.488 272.831C640.361 270.036 637.855 267.551 635.042 265.447C631.421 262.694 627.549 260.287 623.477 258.259C624.455 255.906 625.634 253.357 626.94 250.676C628.247 248.063 629.621 245.383 631.058 242.711C632.495 240.039 633.932 237.417 635.306 234.934C636.745 232.451 638.118 230.229 639.358 228.203C644.547 230.198 649.185 233.404 652.885 237.554C656.104 241.29 658.468 245.684 659.812 250.429C661.11 255.304 661.618 260.356 661.317 265.392C660.98 270.662 660.06 275.878 658.572 280.945C657.075 286.134 655.083 291.167 652.625 295.976C650.31 300.589 647.552 304.967 644.39 309.047C643.482 310.339 642.405 311.504 641.188 312.51C640.007 313.529 638.498 314.086 636.938 314.079C633.306 314.317 629.766 315.32 626.549 317.022C622.367 318.917 617.464 321.139 611.715 323.622C611.858 322.695 612.186 321.806 612.68 321.009C613.174 320.212 613.823 319.523 614.59 318.983C616.55 317.216 618.38 315.649 620.145 314.278C626.223 309.834 631.451 305.519 635.903 301.535C640.371 297.441 644.341 292.835 647.73 287.811L647.716 287.792Z" fill="#4383C4"/>
<path d="M399.646 200.399C400.685 198.701 401.606 196.87 402.59 195.106C403.504 193.275 404.486 191.511 405.464 189.748C406.969 191.251 406.708 194.844 404.682 200.399C402.732 205.672 401.309 211.124 400.432 216.677C399.518 222.166 398.931 227.526 398.538 232.819C398.145 238.113 397.947 243.145 397.818 248.047C397.714 252.526 397.386 256.997 396.836 261.443C396.51 265.234 395.797 269.94 394.746 275.689C393.602 281.51 392.162 287.268 390.432 292.942C388.695 298.499 386.442 303.881 383.701 309.018C381.618 313.29 378.351 316.874 374.29 319.344C376.426 314.298 378.025 309.041 379.062 303.66C380.238 297.712 381.088 291.634 381.675 285.558C382.195 279.48 382.525 273.599 382.657 267.978C382.787 262.423 382.851 257.718 382.851 253.992C382.798 247.64 383.324 241.297 384.42 235.041C385.624 229.121 387.604 223.386 390.307 217.984C392.072 214.455 393.705 211.253 395.274 208.379C396.832 205.435 398.28 202.758 399.653 200.413L399.646 200.399Z" fill="#4383C4"/>
<path d="M332.271 229.622C333.897 229.463 335.464 228.926 336.846 228.053C338.902 226.929 340.849 225.617 342.662 224.132C344.596 222.546 346.41 220.818 348.088 218.963C349.545 217.414 350.757 215.651 351.682 213.736C351.814 211.122 351.88 208.769 351.814 206.547C351.746 204.39 351.682 202.236 351.617 200.14C351.551 197.983 351.419 195.893 351.223 193.801C351.03 191.645 350.898 189.423 350.768 187.07C350.504 185.004 350.569 182.908 350.962 180.862C351.307 178.977 352.066 177.191 353.184 175.634C356.384 171.138 359.225 166.396 361.681 161.454C364.491 156.03 367.104 150.545 369.458 145.05C369.665 144.478 370.087 144.01 370.633 143.744C371.221 143.483 371.615 143.483 371.877 143.744C371.141 146.478 370.703 149.283 370.569 152.11C370.308 155.637 370.05 159.364 369.785 163.414C369.588 167.466 369.326 171.584 369.065 175.766C368.803 179.948 368.412 183.608 367.953 186.874C366.926 192.782 365.42 198.595 363.451 204.258C361.383 210.56 358.529 216.576 354.955 222.163C351.548 227.605 347.187 232.387 342.082 236.28C337.061 240.066 330.92 242.066 324.633 241.965C321.469 242.141 318.315 241.487 315.483 240.069C315.419 238.283 315.973 236.529 317.051 235.104C318.161 233.78 319.542 232.71 321.102 231.966C322.798 231.078 324.632 230.481 326.527 230.202C328.42 229.819 330.345 229.622 332.276 229.613L332.271 229.622ZM315.508 240.143C313.025 243.606 310.281 247.135 307.276 250.663C304.285 254.198 300.982 257.457 297.406 260.4C293.856 263.288 289.919 265.664 285.709 267.46C281.57 269.28 277.096 270.214 272.574 270.204C266.235 270.204 261.203 268.57 257.544 265.302C253.82 262.019 250.93 257.898 249.114 253.277C247.17 248.336 245.938 243.142 245.455 237.854C244.996 232.43 244.735 227.398 244.735 222.759C248.717 216.421 251.791 211.519 253.949 208.122C256.17 204.658 257.346 202.828 257.608 202.566C257.573 207.053 257.92 211.535 258.647 215.962C259.194 219.829 260.528 223.542 262.567 226.872C264.495 229.997 267.226 232.547 270.475 234.257C274.618 236.186 279.18 237.039 283.74 236.739C288.044 236.767 292.325 236.106 296.419 234.778C300.092 233.637 303.605 232.034 306.875 230.008C306.525 227.617 305.427 225.398 303.738 223.67C302.117 222.086 300.18 220.861 298.054 220.075C295.819 219.242 293.494 218.671 291.127 218.376C288.809 218.066 286.473 217.913 284.135 217.917C285.396 214.238 287.4 210.856 290.022 207.983C292.541 205.326 295.422 203.038 298.582 201.188C301.705 199.447 305.046 198.129 308.516 197.268C311.664 196.514 314.887 196.119 318.123 196.092C323.404 195.844 328.674 196.781 333.545 198.835C336.815 200.328 339.388 203.017 340.735 206.35C341.821 209.874 341.637 213.667 340.215 217.069C338.478 221.67 335.858 225.887 332.503 229.483C332.622 231.643 332.075 233.788 330.936 235.627C329.891 237.081 328.498 238.249 326.884 239.024C325.146 239.765 323.283 240.164 321.394 240.2C319.432 240.277 317.467 240.255 315.507 240.134L315.508 240.143ZM244.799 222.858C250.027 222.858 253.63 223.869 255.647 225.93C256.659 227.032 257.44 228.326 257.945 229.734C258.451 231.142 258.67 232.637 258.591 234.131C258.517 238.127 257.901 242.095 256.761 245.927C255.519 250.273 254.212 254.881 252.84 259.619C251.992 262.216 251.01 264.768 249.897 267.264C248.589 270.237 247.282 273.151 245.976 276.054C244.669 278.928 243.552 281.51 242.643 283.96C241.908 285.653 241.445 287.45 241.27 289.287C241.27 291.64 242.837 293.962 246.104 296.213C248.786 298.063 251.32 300.116 253.686 302.356C255.576 304.184 257.224 306.249 258.588 308.498C259.821 310.583 260.704 312.857 261.201 315.229C261.745 317.807 262.008 320.436 261.985 323.071C261.942 329.953 260.93 336.795 258.979 343.395C256.939 350.706 254.158 357.79 250.679 364.537C247.093 371.587 242.848 378.282 238.002 384.534C233.238 390.674 227.851 396.303 221.926 401.331C216.325 406.023 210.101 409.916 203.432 412.898C197.121 415.727 190.285 417.196 183.369 417.21C177.224 417.402 171.137 415.968 165.723 413.054C160.996 410.385 156.949 406.66 153.896 402.171C150.715 397.492 148.433 392.262 147.165 386.749C145.779 381.014 145.076 375.135 145.074 369.235C145.103 359.541 146.421 349.893 148.994 340.547C151.642 330.821 154.984 321.296 158.993 312.047C163.045 302.735 167.49 293.749 172.326 284.992C177.228 276.301 181.868 268.196 186.378 260.715C187.1 262.622 187.28 264.691 186.898 266.694C186.549 268.669 185.863 270.57 184.872 272.313C181.997 278.13 179.055 284.011 175.983 289.803C172.912 295.716 170.167 301.597 167.618 307.578C165.079 313.547 162.918 319.669 161.148 325.909C159.374 332.235 158.365 338.751 158.142 345.317C157.817 356.983 160.691 366.36 166.833 373.289C172.976 380.281 181.864 383.744 193.431 383.744C199.179 383.744 204.891 382.84 210.358 381.065C215.949 379.253 221.319 376.819 226.369 373.812C231.35 370.834 235.941 367.246 240.033 363.131C243.889 359.358 247.19 355.056 249.836 350.355C250.558 349.221 251.016 347.939 251.175 346.605C251.333 345.27 251.189 343.917 250.752 342.646C250.265 341.356 249.521 340.179 248.567 339.185C247.612 338.191 246.466 337.401 245.197 336.862C238.073 333.693 233.041 329.837 230.166 325.327C227.168 320.714 225.621 315.308 225.723 309.807C225.795 305.184 226.912 300.638 228.991 296.508C231.211 291.934 233.367 287.653 235.46 283.666C237.953 278.82 239.904 273.713 241.277 268.438C242.485 263.6 243.38 258.688 243.955 253.735C244.536 248.757 244.82 243.75 244.806 238.739V222.851L244.799 222.858ZM244.799 222.858V215.931C244.799 212.598 244.866 208.939 244.996 204.984C245.126 201.063 245.258 197.275 245.322 193.647C245.37 190.788 245.633 187.938 246.106 185.118C246.296 183.544 246.737 182.011 247.414 180.576C248.001 179.269 248.525 178.093 248.915 177.113C250.027 174.63 251.007 172.278 251.859 170.121C252.773 167.87 253.623 165.677 254.408 163.227C255.192 160.874 255.975 158.422 256.759 155.781C257.479 153.166 258.328 150.162 259.183 146.861C261.012 147.712 261.608 151.239 260.882 157.317C260.491 160.618 260.098 164.309 259.641 168.133C259.182 172.022 258.856 175.846 258.602 179.766C258.34 183.719 258.143 187.64 257.947 191.56C257.753 195.449 257.687 199.14 257.687 202.44C257.763 205.579 257.477 208.717 256.835 211.791C256.446 213.939 255.621 215.984 254.411 217.801C253.39 219.235 252.019 220.382 250.428 221.135C248.644 221.968 246.753 222.551 244.809 222.866L244.799 222.858Z" fill="#4383C4"/>
<path d="M459.82 220.384C462.826 216.464 465.439 212.999 467.662 210.058C469.886 207.118 471.78 204.69 473.283 202.673C475.048 200.451 476.485 198.425 477.725 196.726C492.691 178.886 505.457 176.315 516.022 189.014C516.868 189.817 517.378 190.91 517.451 192.075C517.524 193.239 517.153 194.387 516.413 195.289C515.711 196.198 514.757 196.88 513.67 197.249C512.542 197.764 511.316 198.031 510.075 198.032C508.173 197.897 506.29 197.569 504.454 197.052C502.56 196.593 500.927 196.138 499.422 195.745C493.346 194.307 487.464 196.726 481.843 203.066C478.641 206.529 476.942 209.797 476.811 212.737C476.662 215.625 477.595 218.465 479.425 220.703C481.54 223.192 484.201 225.16 487.2 226.454C490.53 228.048 494.075 229.148 497.722 229.719C503.831 230.691 510.089 229.587 515.497 226.583C517.196 225.602 519.222 224.426 521.444 223.186C523.665 221.946 526.084 220.505 528.697 218.938C530.464 217.899 531.574 217.499 532.097 217.695C532.552 217.892 532.488 218.871 531.901 220.569C531.148 222.812 530.185 224.978 529.026 227.041C528.109 228.681 526.78 230.054 525.17 231.023C513.868 236.624 502.932 242.936 492.428 249.921C483.815 255.567 475.991 262.336 469.164 270.048C462.162 278.129 456.231 287.08 451.518 296.678C447.439 304.948 444.662 313.799 443.284 322.916C442.085 330.835 442.417 338.911 444.264 346.704C445.871 353.81 449.091 360.452 453.676 366.114C458.339 371.829 464.33 376.317 471.126 379.184C479.125 382.54 487.744 384.166 496.416 383.955C506.386 384.007 516.297 382.428 525.757 379.279C534.892 376.203 543.607 371.999 551.701 366.765C559.91 361.431 567.514 355.218 574.376 348.236C581.413 341.188 587.882 333.594 593.72 325.526C594.439 324.547 595.353 323.371 596.465 321.998C596.901 321.389 597.467 320.885 598.123 320.523C598.778 320.161 599.506 319.951 600.254 319.907C596.399 327.619 592.086 335.363 587.44 343.237C582.769 351.083 577.618 358.634 572.018 365.847C566.47 372.999 560.421 379.748 553.915 386.041C547.534 392.191 540.5 397.626 532.938 402.248C525.382 406.867 517.282 410.532 508.823 413.157C500.022 415.892 490.853 417.258 481.637 417.207C474.113 417.258 466.639 415.998 459.548 413.483C452.832 411.088 446.673 407.353 441.445 402.504C436.132 397.535 431.962 391.469 429.225 384.729C426.097 376.944 424.566 368.611 424.723 360.223C424.7 349.905 425.996 339.627 428.579 329.638C431.097 319.86 434.65 310.377 439.177 301.35C443.781 292.25 449.206 283.588 455.383 275.473C461.611 267.293 468.332 259.502 475.51 252.142C471.194 251.559 467.001 250.279 463.094 248.352C460.013 246.815 457.431 244.436 455.648 241.491C454.05 238.63 453.517 235.296 454.145 232.08C455.088 227.786 457.036 223.777 459.83 220.382L459.82 220.384Z" fill="#4383C4"/>
</svg>
